<svg width="33" height="35" viewBox="0 0 33 35" fill="none" xmlns="http://www.w3.org/2000/svg">
<path d="M4.76001 6.5625H7.36732C8.07719 6.5625 8.43212 6.5625 8.6966 6.75725C8.96109 6.95201 9.06645 7.29094 9.27717 7.96881L10.2 10.9375" stroke="black" stroke-linecap="round"/>
<path d="M23.8 25.5208H11.038C10.2794 25.5208 9.90018 25.5208 9.65088 25.3579C9.44944 25.2262 9.30224 25.0263 9.2363 24.7949C9.15469 24.5084 9.26727 24.1462 9.49243 23.4219C9.75138 22.5889 9.88085 22.1724 10.1352 21.8667C10.3427 21.6173 10.6078 21.4221 10.9076 21.298C11.275 21.1458 11.7112 21.1458 12.5835 21.1458H19.72" stroke="black" stroke-linecap="round" stroke-linejoin="round"/>
<path d="M20.0391 21.1458H14.2689C12.9569 21.1458 12.3009 21.1458 11.793 20.8018C11.285 20.4578 11.0415 19.8486 10.5546 18.6304L9.12399 15.0509C8.3791 13.1871 8.00666 12.2553 8.45288 11.5964C8.8991 10.9375 9.90264 10.9375 11.9097 10.9375H22.8819C25.114 10.9375 26.2301 10.9375 26.667 11.6655C27.104 12.3936 26.5792 13.3785 25.5294 15.3484L23.5691 19.027C23.019 20.0593 22.7439 20.5755 22.2688 20.8606C21.7937 21.1458 21.2088 21.1458 20.0391 21.1458Z" stroke="black" stroke-linecap="round"/>
<ellipse cx="23.12" cy="29.1667" rx="1.36" ry="1.45833" fill="black"/>
<ellipse cx="12.24" cy="29.1667" rx="1.36" ry="1.45833" fill="black"/>
</svg>
